<svg xmlns="http://www.w3.org/2000/svg" preserveAspectRatio="xMinYMin meet" viewBox="0 0 500 500" shape-rendering="crispEdges" transform-origin="center"><rect width="100%" height="100%" fill="#256C00" /><g transform="scale (5 5)"><rect x="17" y="-1" width="66" height="9" stroke-width="0.3" stroke="black" fill="#FFA800" /><text x="50" y="5.5" width="57" font-family="monospace" font-size="5" text-anchor="middle">Divine Maze of Sand</text></g><rect x="90" y="90" width="319" height="29" fill="#68A225" /><rect x="90" y="119" width="319" height="29" fill="#68A225" /><rect x="90" y="148" width="319" height="29" fill="#68A225" /><rect x="90" y="177" width="319" height="29" fill="#68A225" /><rect x="90" y="206" width="116" height="29" fill="#68A225" /><rect x="264" y="206" width="145" height="29" fill="#68A225" /><rect x="90" y="235" width="145" height="29" fill="#68A225" /><rect x="293" y="235" width="116" height="29" fill="#68A225" /><rect x="90" y="264" width="145" height="29" fill="#68A225" /><rect x="264" y="264" width="87" height="29" fill="#68A225" /><rect x="380" y="264" width="29" height="29" fill="#68A225" /><rect x="90" y="293" width="145" height="29" fill="#68A225" /><rect x="293" y="293" width="58" height="29" fill="#68A225" /><rect x="90" y="322" width="58" height="29" fill="#68A225" /><rect x="206" y="322" width="29" height="29" fill="#68A225" /><rect x="293" y="322" width="116" height="29" fill="#68A225" /><rect x="90" y="351" width="58" height="29" fill="#68A225" /><rect x="293" y="351" width="116" height="29" fill="#68A225" /><rect x="90" y="380" width="87" height="29" fill="#68A225" /><rect x="264" y="380" width="145" height="29" fill="#68A225" /><rect x="206" y="380" width="29" height="29" fill="#FDFFFF" /><rect x="264" y="351" width="29" height="29" fill="#B3DE81" /><rect x="177" y="322" width="29" height="29" fill="#B3DE81" /><rect x="148" y="322" width="29" height="29" fill="#B3DE81" /><rect x="235" y="293" width="29" height="29" fill="#FDFFFF" /></svg>